# xmcd
#
# Track frame offsets:
# 150
# 12123
# 24295
# 38463
# 50755
# 65968
# 79735
# 92275
# 104198
# 115548
#
# Disc length: 1681 seconds
#
#
# Revision: 0
# Processed by: cddbd v1.5PL3 Copyright (c) Steve Scherf et al.
# Submitted via: FreeRIP 2.60 
#
DISCID=74068f0a
DTITLE=Ronnie McDowell - American Music
DYEAR=1900
DGENRE=
TTITLE0=Sea Of Heartbreak
TTITLE1=Hot Burning Flames
TTITLE2=Love Ya Babe
TTITLE3=Who'll Turn Out The Lights
TTITLE4=Under These Conditions
TTITLE5=String Around My Heart
TTITLE6=American Music
TTITLE7=Hey Hey Miss Lucy
TTITLE8=Did She Ask About Me
TTITLE9=Honky Tonk Women Love Redneck Men
EXTD=
EXTT0=
EXTT1=
EXTT2=
EXTT3=
EXTT4=
EXTT5=
EXTT6=
EXTT7=
EXTT8=
EXTT9=
PLAYORDER=
